# xmcd
#
# Track frame offsets: 
#        300
#        23092
#        54732
#        87575
#        131910
#        157945
#        183687
#        258062
#        284357
#
# Disc length: 4417 seconds
#
# Revision: 6
# Processed by: cddbd v1.5.2PL0 Copyright (c) Steve Scherf et al.
# Submitted via: ExactAudioCopyFreeDBPlugin 1.0
#
DISCID=7e113d09
DTITLE=Bohren und der Club of Gore - Sunset Mission
DYEAR=2000
DGENRE=Jazz
TTITLE0=Prowler
TTITLE1=On Demon Wings
TTITLE2=Midnight Walker
TTITLE3=Street Tattoo
TTITLE4=Painless Steel
TTITLE5=Darkstalker
TTITLE6=Nightwolf
TTITLE7=Black City Skyline
TTITLE8=Dead End Angels
EXTD=
EXTT0=
EXTT1=
EXTT2=
EXTT3=
EXTT4=
EXTT5=
EXTT6=
EXTT7=
EXTT8=
PLAYORDER=
